<?xml version="1.0" encoding="utf-8"?>
<!-- Generator: Adobe Illustrator 16.0.0, SVG Export Plug-In . SVG Version: 6.00 Build 0)  -->
<!DOCTYPE svg PUBLIC "-//W3C//DTD SVG 1.1//EN" "http://www.w3.org/Graphics/SVG/1.1/DTD/svg11.dtd">
<svg version="1.1" id="Layer_1" xmlns="http://www.w3.org/2000/svg" xmlns:xlink="http://www.w3.org/1999/xlink" x="0px" y="0px"
	 width="1165px" height="520px" viewBox="0 0 1165 520" enable-background="new 0 0 1165 520" xml:space="preserve">
<pattern  x="-311" y="-165" width="158.425" height="111.247" patternUnits="userSpaceOnUse" id="New_Pattern_2" viewBox="0 -111.247 158.425 111.247" overflow="visible">
	<g>
		<polygon fill="none" points="0,-111.247 158.425,-111.247 158.425,0 0,0 		"/>
		<polygon opacity="0.3" fill="#754C29" points="158.425,-104.247 0,-104.247 0,-111.247 158.425,-111.247 		"/>
		<polygon opacity="0.3" fill="#754C29" points="158.425,0 0,0 0,-7 158.425,-7 		"/>
	</g>
</pattern>
<g>
	<rect x="38.804" y="45.144" fill="#D9BD9D" width="1098.109" height="458.427"/>
	<pattern  id="SVGID_1_" xlink:href="#New_Pattern_2" patternTransform="matrix(0.5938 0 0 0.5 -3080.6694 -3588.2397)">
	</pattern>
	<rect x="38.804" y="45.144" opacity="0.32" fill="url(#SVGID_1_)" width="1098.109" height="458.427"/>
</g>
<g>
	<path fill="#603913" d="M572.313,193.57c-108.8,0-196,95.669-196,216.772l393,2.504C769.313,291.743,681.112,193.57,572.313,193.57
		z"/>
</g>
<g>
	<path d="M983.406,148.393c-1.255-0.266-2.468-0.662-3.617-1.171c-1.151-0.509-2.244-1.14-3.268-1.864
		c-1.02-0.721-1.972-1.545-2.846-2.454c-0.87-0.917-1.653-1.915-2.348-2.985c-0.687-1.077-1.285-2.226-1.772-3.427
		c-0.49-1.215-0.869-2.484-1.121-3.791c-0.262-1.319-0.394-2.684-0.394-4.066c-0.003-1.389,0.129-2.755,0.386-4.067
		c0.252-1.318,0.633-2.581,1.117-3.794c0.483-1.213,1.081-2.362,1.771-3.431c0.687-1.075,1.474-2.071,2.337-2.987
		c0.873-0.913,1.825-1.741,2.85-2.468c1.017-0.724,2.11-1.354,3.257-1.866c1.151-0.509,2.363-0.908,3.616-1.179
		c1.249-0.266,2.546-0.406,3.865-0.412c1.325,0,2.619,0.143,3.869,0.402c1.259,0.275,2.463,0.671,3.615,1.184
		c1.15,0.509,2.241,1.129,3.264,1.85c1.028,0.733,1.979,1.554,2.848,2.468c0.87,0.917,1.655,1.906,2.345,2.979l1.523,2.355
		l-27.997,18.565c0.217,0.265,0.441,0.522,0.68,0.768c0.636,0.66,1.322,1.263,2.07,1.789c0.743,0.531,1.54,0.985,2.372,1.353
		c0.839,0.365,1.711,0.658,2.626,0.854c0.901,0.189,1.847,0.295,2.819,0.3c0.966-0.003,1.909-0.114,2.813-0.31
		c0.908-0.193,1.787-0.485,2.618-0.853c0.834-0.373,1.628-0.826,2.373-1.347c0.74-0.535,1.438-1.134,2.07-1.799
		c0.633-0.669,1.202-1.398,1.702-2.175c0.502-0.788,0.935-1.617,1.286-2.498l0.635-1.572l4.831,2.139l-0.629,1.577
		c-0.487,1.207-1.082,2.352-1.771,3.435c-0.693,1.074-1.476,2.067-2.344,2.986c-0.866,0.914-1.819,1.74-2.845,2.466
		c-1.018,0.721-2.109,1.351-3.261,1.86c-1.151,0.513-2.356,0.913-3.612,1.177c-1.252,0.274-2.547,0.418-3.867,0.417
		C985.953,148.802,984.658,148.667,983.406,148.393 M984.425,114.241c-0.905,0.196-1.779,0.486-2.62,0.861
		c-0.831,0.369-1.626,0.821-2.366,1.349c-0.745,0.533-1.438,1.137-2.069,1.795c-0.634,0.669-1.208,1.396-1.71,2.173
		c-0.497,0.79-0.929,1.621-1.28,2.501c-0.357,0.879-0.623,1.8-0.814,2.746c-0.186,0.953-0.28,1.945-0.277,2.961
		c-0.001,1.022,0.096,2.009,0.282,2.961c0.129,0.645,0.295,1.276,0.498,1.879l23.028-15.269c-0.621-0.65-1.305-1.239-2.041-1.754
		c-0.744-0.534-1.535-0.98-2.365-1.356c-0.842-0.372-1.72-0.655-2.624-0.85c-0.91-0.193-1.852-0.296-2.818-0.296
		C986.279,113.943,985.336,114.047,984.425,114.241 M928.355,128.665l-0.026-32.427l5.251-0.001l0.011,18.572
		c3.502-3.902,8.467-6.337,13.967-6.345l0.002,0.002c10.612-0.013,19.222,9.021,19.235,20.167
		c0.009,11.148-8.584,20.19-19.203,20.198C936.979,148.844,928.37,139.813,928.355,128.665 M933.603,128.645l0.001,0.015
		c0.019,8.099,6.269,14.659,13.981,14.664c7.723-0.018,13.954-6.584,13.961-14.685c-0.021-8.102-6.267-14.655-13.979-14.661
		C939.851,113.992,933.618,120.549,933.603,128.645 M1036.192,148.372l-16.388-13.71l0.009,13.721l-5.246,0.004l-0.041-52.204
		l5.244-0.007l0.021,27.035l16.369-13.735l8.413-0.008l-23.194,19.471l23.226,19.425L1036.192,148.372z M1008.385,148.39
		l-1.627,0.003l-0.04-52.215l5.242-0.01l0.045,52.22L1008.385,148.39z"/>
	<path fill="#8ED8F8" d="M909.289,132.682c7.838-0.014,15.122-9,15.122-9s-6.213-8.361-14.055-8.358
		c-7.839,0.014-14.191,8.567-14.191,8.567s4.1,7.802,12.801,8.746"/>
	<path fill="#008FD5" d="M898.406,100.065c-0.002-2.099,0.159-3.456,0.159-3.456s13.182-1.719,20.316,5.764
		c4.898,5.138,5.67,13.279,5.672,17.869c0.004,1.907-0.123,3.207-0.148,3.422c-1.02-1.284-6.924-8.348-14.049-8.341
		c-2.47,0.004-4.791,0.855-6.813,2.021C899.131,112.189,898.413,104.492,898.406,100.065"/>
	<path fill="#25408F" d="M903.544,117.344c2.021-1.166,4.343-2.017,6.813-2.021c7.125-0.006,13.03,7.057,14.049,8.341l-0.002,0.035
		c0,0-13.184,1.716-20.316-5.76C903.897,117.736,903.721,117.547,903.544,117.344"/>
	<path fill="#77BAE7" d="M908.25,138.416c0.002-1.642,0.082-4.06,0.863-6.322c0.134-0.389,0.794,0.032,1.198,0.034
		c7.271-0.01,13.261-7.365,14.091-8.436c0.009,0.088,0.1,0.915,0.1,2.14c0.001,2.865-0.47,7.927-3.513,11.125
		c-4.434,4.663-12.634,3.611-12.634,3.611S908.253,139.722,908.25,138.416"/>
	<path fill="#0072BC" d="M908.94,132.637c0.533-1.835,1.371-3.648,2.678-5.1c4.484-4.975,12.783-3.845,12.783-3.845v0.007
		c-0.838,1.145-6.899,8.996-14.255,9.006C909.74,132.705,909.336,132.683,908.94,132.637"/>
</g>
<ellipse fill="#CEAB83" cx="469.541" cy="1121.773" rx="253.347" ry="256"/>
<path fill="#CEAB83" d="M741.638,421.25c0,1.519-1.231,2.75-2.75,2.75h-32c-1.519,0-2.75-1.231-2.75-2.75l0,0
	c0-1.519,1.231-2.75,2.75-2.75h32C740.406,418.5,741.638,419.731,741.638,421.25L741.638,421.25z"/>
<path fill="#CEAB83" d="M741.638,505.193c0,1.519-1.231,2.75-2.75,2.75h-32c-1.519,0-2.75-1.231-2.75-2.75l0,0
	c0-1.519,1.231-2.75,2.75-2.75h32C740.406,502.443,741.638,503.675,741.638,505.193L741.638,505.193z"/>
<rect x="710.5" y="398.191" fill="#CEAB83" width="55" height="21.309"/>
<rect x="712.233" y="391.07" fill="#CEAB83" width="21.309" height="111.5"/>
<g>
	<path d="M571.689,408.923c-0.377-0.079-0.74-0.198-1.085-0.351c-0.345-0.153-0.673-0.342-0.979-0.56
		c-0.307-0.216-0.592-0.463-0.854-0.735c-0.261-0.275-0.496-0.574-0.704-0.896c-0.206-0.322-0.386-0.667-0.532-1.027
		c-0.146-0.364-0.26-0.745-0.336-1.137c-0.078-0.396-0.118-0.805-0.118-1.22c-0.001-0.416,0.039-0.826,0.116-1.22
		c0.075-0.395,0.189-0.773,0.335-1.138c0.145-0.363,0.324-0.708,0.531-1.028c0.205-0.323,0.441-0.621,0.7-0.896
		c0.262-0.273,0.548-0.521,0.854-0.739c0.306-0.218,0.633-0.406,0.978-0.561c0.345-0.152,0.708-0.271,1.084-0.354
		c0.375-0.079,0.764-0.121,1.159-0.123c0.397,0,0.785,0.043,1.16,0.121c0.378,0.082,0.738,0.201,1.084,0.354
		c0.345,0.152,0.673,0.339,0.979,0.555c0.308,0.22,0.593,0.466,0.854,0.74c0.261,0.275,0.496,0.571,0.703,0.894l0.457,0.706
		l-8.396,5.567c0.065,0.079,0.133,0.156,0.204,0.23c0.19,0.197,0.396,0.378,0.621,0.536c0.223,0.159,0.462,0.296,0.711,0.405
		c0.252,0.11,0.514,0.197,0.788,0.256c0.27,0.058,0.554,0.089,0.845,0.091c0.29-0.001,0.573-0.034,0.844-0.093
		c0.272-0.059,0.536-0.146,0.785-0.257c0.25-0.111,0.488-0.247,0.712-0.403c0.222-0.16,0.432-0.34,0.621-0.54s0.36-0.419,0.51-0.651
		c0.15-0.236,0.28-0.485,0.386-0.75l0.19-0.471l1.449,0.641l-0.188,0.474c-0.146,0.362-0.325,0.705-0.531,1.029
		c-0.208,0.322-0.442,0.621-0.703,0.896c-0.26,0.274-0.546,0.522-0.854,0.74c-0.305,0.216-0.632,0.404-0.978,0.558
		s-0.707,0.273-1.083,0.353c-0.376,0.083-0.764,0.126-1.16,0.125C572.453,409.046,572.064,409.006,571.689,408.923 M571.995,398.682
		c-0.271,0.059-0.534,0.146-0.786,0.258c-0.249,0.111-0.487,0.246-0.71,0.404c-0.223,0.16-0.431,0.342-0.62,0.539
		c-0.19,0.2-0.362,0.418-0.513,0.651c-0.149,0.236-0.278,0.486-0.384,0.75c-0.107,0.264-0.188,0.54-0.244,0.823
		c-0.056,0.286-0.084,0.583-0.084,0.889c0,0.307,0.029,0.603,0.085,0.888c0.039,0.193,0.089,0.383,0.149,0.563l6.906-4.579
		c-0.187-0.194-0.392-0.371-0.612-0.525c-0.224-0.16-0.46-0.294-0.709-0.407c-0.253-0.111-0.517-0.196-0.787-0.255
		c-0.273-0.058-0.556-0.089-0.846-0.089S572.268,398.623,571.995,398.682 M555.18,403.007l-0.008-9.725h1.575l0.003,5.569
		c1.051-1.17,2.539-1.9,4.188-1.902h0.001c3.183-0.003,5.764,2.706,5.769,6.049c0.002,3.343-2.574,6.055-5.759,6.057
		C557.766,409.059,555.185,406.351,555.18,403.007 M556.754,403.001v0.005c0.006,2.429,1.88,4.396,4.193,4.397
		c2.315-0.006,4.185-1.975,4.187-4.404c-0.007-2.43-1.88-4.395-4.192-4.396C558.627,398.607,556.759,400.573,556.754,403.001
		 M587.52,408.917l-4.915-4.111l0.003,4.114l-1.573,0.001l-0.013-15.655l1.573-0.002l0.006,8.107l4.909-4.119l2.522-0.002
		l-6.955,5.839l6.965,5.825L587.52,408.917z M579.18,408.922l-0.487,0.001l-0.013-15.658l1.572-0.003l0.014,15.66H579.18z"/>
	<path fill="#8ED8F8" d="M549.462,404.212c2.351-0.004,4.535-2.699,4.535-2.699s-1.863-2.508-4.215-2.507
		c-2.351,0.004-4.256,2.569-4.256,2.569s1.229,2.34,3.839,2.623"/>
	<path fill="#008FD5" d="M546.199,394.431c-0.001-0.63,0.047-1.037,0.047-1.037s3.953-0.515,6.093,1.729
		c1.47,1.54,1.7,3.981,1.701,5.358c0.001,0.571-0.037,0.961-0.045,1.026c-0.306-0.386-2.076-2.504-4.213-2.502
		c-0.74,0.001-1.437,0.257-2.043,0.606C546.416,398.066,546.201,395.758,546.199,394.431"/>
	<path fill="#25408F" d="M547.739,399.612c0.606-0.35,1.303-0.605,2.043-0.606c2.137-0.002,3.908,2.116,4.213,2.502v0.01
		c0,0-3.954,0.515-6.093-1.728C547.846,399.729,547.793,399.673,547.739,399.612"/>
	<path fill="#77BAE7" d="M549.15,405.932c0.001-0.492,0.025-1.218,0.26-1.896c0.04-0.116,0.237,0.01,0.358,0.011
		c2.181-0.003,3.978-2.209,4.226-2.53c0.003,0.026,0.03,0.274,0.03,0.642c0,0.859-0.141,2.377-1.054,3.336
		c-1.329,1.399-3.788,1.083-3.788,1.083S549.151,406.323,549.15,405.932"/>
	<path fill="#0072BC" d="M549.357,404.198c0.16-0.55,0.411-1.094,0.804-1.529c1.345-1.492,3.833-1.153,3.833-1.153v0.002
		c-0.251,0.344-2.068,2.698-4.274,2.701C549.598,404.219,549.477,404.212,549.357,404.198"/>
</g>
<path fill="#CEAB83" d="M392.298,425.251c0,1.519,1.231,2.75,2.75,2.75h32c1.519,0,2.75-1.231,2.75-2.75l0,0
	c0-1.519-1.231-2.75-2.75-2.75h-32C393.529,422.501,392.298,423.732,392.298,425.251L392.298,425.251z"/>
<polygon fill="#CEAB83" points="375.313,423.501 423.436,423.501 423.436,402.192 376.376,402.192 "/>
<rect x="400.394" y="395.071" fill="#CEAB83" width="21.309" height="111.5"/>
<g>
	<path fill="none" d="M566.963,247.144c-113.293,0-205.134,115.943-205.134,258.964c0,0.154,0.005,0.31,0.005,0.464H772.09
		c0.002-0.154,0.006-0.31,0.006-0.464C772.096,363.087,680.254,247.144,566.963,247.144z"/>
</g>
<g>
	<g>
		<path fill="#00AEEF" d="M571.113,219.492c-90.452,0-163.781,76.379-163.781,170.596c0,1.891,0.034,3.772,0.093,5.648
			c3.138-0.531,6.321-0.808,9.528-0.808c0.453,0,0.909,0.007,1.36,0.019c0.458-0.012,0.917-0.019,1.373-0.019
			c3.293,0,6.564,0.291,9.781,0.851l6.079-0.851h0.548c1.754,0.006,3.487,0.09,5.206,0.242c1.72-0.156,3.449-0.242,5.185-0.242
			c0.291,0,0.58,0.006,0.871,0.012c4.524-1.129,9.19-1.719,13.895-1.719c5.196,0,10.337,0.721,15.3,2.095
			c4.971-1.375,10.124-2.095,15.329-2.095c2.109,0,4.21,0.118,6.297,0.351c2.077-0.23,4.176-0.351,6.279-0.351
			c3.857,0,7.688,0.396,11.437,1.162c0.912,0.025,1.821,0.079,2.727,0.148c1.472-0.114,2.95-0.173,4.431-0.173
			c1.366,0,2.724,0.055,4.08,0.153c0.598-0.043,1.199-0.077,1.801-0.102c2.752-0.407,5.537-0.621,8.341-0.621
			c0.395,0,0.788,0.008,1.182,0.016c2.679-0.386,5.39-0.584,8.115-0.584c3.338,0,6.655,0.303,9.916,0.88
			c1.969-0.207,3.953-0.312,5.941-0.312c3.696,0,7.361,0.364,10.957,1.066c3.584-0.699,7.238-1.066,10.92-1.066
			c3.034,0,6.05,0.247,9.021,0.723c2.974-0.476,5.992-0.723,9.026-0.723c0.232,0,0.462,0.007,0.696,0.008
			c2.658-0.38,5.349-0.576,8.053-0.576c3.852,0,7.674,0.394,11.413,1.154c0.389-0.008,0.777-0.017,1.167-0.017
			c0.397,0,0.797,0.008,1.193,0.015c2.677-0.384,5.382-0.584,8.103-0.584c2.112,0,4.214,0.12,6.302,0.353
			c2.078-0.231,4.174-0.353,6.277-0.353h39.925c1.276,0,2.547,0.047,3.814,0.132c1.274-0.086,2.557-0.132,3.842-0.132
			c3.217,0,6.417,0.277,9.562,0.813c1.728-0.157,3.461-0.244,5.203-0.244c1.183,0,2.359,0.041,3.533,0.114
			c1.188-0.075,2.38-0.114,3.578-0.114c0.983,0,1.967,0.026,2.949,0.076c2.815-0.427,5.665-0.646,8.536-0.646
			c2.803,0,5.588,0.212,8.341,0.619c0.034-1.437,0.057-2.877,0.057-4.321C734.895,295.871,661.567,219.492,571.113,219.492z"/>
		<path fill="none" d="M572.817,219.256c0,58.106,0,116.209,0,174.439"/>
		<path fill="none" stroke="#703817" stroke-miterlimit="10" d="M543.922,221.89c4.56,27.844,9.208,54.902,14.131,83.955
			c3.281,17.374,5.742,33.04,8.475,50.129c0.548,3.988,1.644,7.406,2.188,11.394c1.367,9.114,2.736,17.659,4.318,26.354"/>
		<path fill="none" stroke="#703817" stroke-miterlimit="10" d="M515.905,229.709c14.802,41.957,29.023,83.255,44.062,125.412
			c4.373,12.815,9.022,25.347,13.235,38.074"/>
		<path fill="none" stroke="#703817" stroke-miterlimit="10" d="M489.617,242.477c2.263,4.124,4.449,8.111,6.636,12.383
			c16.953,30.193,32.267,57.82,49.22,88.012c0.822,1.71,1.643,3.419,2.735,5.127c8.203,15.382,16.68,29.909,24.983,45.232"/>
		<path fill="none" stroke="#703817" stroke-miterlimit="10" d="M465.857,259.807c2.23,2.743,4.417,5.591,6.878,8.44
			c3.283,3.987,6.29,7.405,9.024,11.961c0.547,0.57,1.095,0.855,1.641,1.427c11.759,14.525,22.422,28.198,34.18,42.723
			c8.479,10.254,16.407,19.938,24.613,30.764c0.818,1.138,2.187,1.708,3.008,2.849c5.195,6.833,10.389,12.532,15.313,19.65
			c0.547,0.857,1.368,1.141,1.912,1.71c3.557,5.127,7.112,9.398,10.861,13.934"/>
		<path fill="none" stroke="#703817" stroke-miterlimit="10" d="M445.345,281.17c1.213,0.801,2.012,2.035,3.055,3.027
			c1.119,1.066,2.366,2.014,3.528,3.025c2.318,2.011,4.613,4.047,6.931,6.053c2.335,2.021,4.656,4.158,7.202,5.874
			c2.42,1.632,3.978,4.132,6.233,5.948c9.613,7.737,18.85,15.953,28.128,24.113c4.667,4.104,9.348,8.186,14.099,12.185
			c4.787,4.03,9.214,8.497,14.104,12.392c4.787,3.813,9.369,7.855,13.778,12.135c4.29,4.165,9.469,7.285,13.484,11.767
			c0.582,0.65,0.986,1.43,1.772,1.817c0.809,0.397,1.402,0.838,2.103,1.43c1.611,1.364,3.218,2.734,4.818,4.111
			c3.137,2.698,6.257,5.423,9.363,8.158"/>
		<path fill="none" stroke="#703817" stroke-miterlimit="10" d="M428.708,305.92c0.786,0.934,1.876,1.441,2.951,1.914
			c1.189,0.524,2.282,1.16,3.412,1.814c2.697,1.568,5.365,3.187,8.04,4.797c2.618,1.575,5.498,2.947,7.877,4.892
			c2.415,1.974,5.408,3.355,8.073,4.936c10.754,6.372,21.435,12.868,32.124,19.352c10.769,6.526,21.708,12.772,32.408,19.405
			c5.255,3.259,10.418,6.698,15.865,9.604c5.42,2.892,10.603,6.335,15.811,9.623c6.105,3.856,12.436,7.365,18.651,11.024"/>
		<path fill="none" stroke="#703817" stroke-miterlimit="10" d="M416.45,333.304c36.324,13.84,72.419,27.228,109.063,41.47
			c5.467,1.993,10.938,3.987,16.404,5.981c10.939,4.559,21.604,8.543,32.557,12.505"/>
		<path fill="none" stroke="#703817" stroke-miterlimit="10" d="M408.942,362.485c45.746,8.87,90.046,16.275,137.077,25.105
			c10.666,1.994,20.508,3.986,30.724,5.541"/>
		<line fill="none" stroke="#703817" stroke-miterlimit="10" x1="406.415" y1="392.585" x2="739.221" y2="392.585"/>
		<path fill="none" stroke="#703817" stroke-miterlimit="10" d="M570.249,393.279c55.617-9.961,110.856-21.07,166.443-30.794"/>
		<path fill="none" stroke="#703817" stroke-miterlimit="10" d="M571.146,393.279c52.808-20.215,105.311-40.153,158.039-59.976"/>
		<path fill="none" stroke="#703817" stroke-miterlimit="10" d="M571.938,393.215c10.993-6.663,21.961-13.372,32.952-20.038
			c10.966-6.652,21.974-13.234,32.987-19.804c11.025-6.576,22.044-13.166,33.055-19.766c11.001-6.597,21.994-13.206,32.979-19.829
			c4.342-2.616,8.68-5.236,13.018-7.857"/>
		<path fill="none" stroke="#703817" stroke-miterlimit="10" d="M572.121,393.195c9.73-8.507,19.463-17.011,29.193-25.518
			c9.746-8.517,19.49-17.037,29.236-25.555c9.767-8.534,19.529-17.068,29.292-25.604c9.739-8.508,19.477-17.021,29.214-25.53
			c3.745-3.273,7.49-6.545,11.231-9.819"/>
		<path fill="none" stroke="#703817" stroke-miterlimit="10" d="M571.736,393.773c7.896-9.764,15.828-19.49,23.711-29.263
			c3.998-4.956,7.983-9.924,11.948-14.907c2.01-2.528,4.012-5.062,6.007-7.6c0.959-1.217,1.861-2.725,2.984-3.774
			c0.468-0.44,0.956-0.712,1.374-1.226c0.535-0.656,1.069-1.314,1.602-1.972c8.003-9.853,15.922-19.778,23.848-29.696
			c7.887-9.864,15.784-19.718,23.784-29.482c1.102-1.341,2.287-2.64,3.321-4.041c0.416-0.56,0.585-1.188,1.042-1.741
			c0.572-0.702,1.147-1.397,1.727-2.093c2.255-2.702,4.539-5.381,6.693-8.171"/>
		<path fill="none" stroke="#703817" stroke-miterlimit="10" d="M572.266,393.717c10.945-20.368,22.429-39.736,33.368-60.529
			c0.271-0.57,0.819-1.139,1.365-1.709c1.093-1.994,1.642-3.703,3.009-5.411c0.547-0.855,0.547-1.71,1.092-2.564
			c4.65-7.974,8.478-15.38,12.854-23.641c1.913-3.134,3.827-5.979,5.469-9.114c2.736-5.695,6.016-10.822,8.75-16.521
			c0.821-1.14,1.367-2.279,2.188-3.418c0.822-1.138,1.094-2.278,1.641-3.416c0.273-0.286,0.545-0.57,0.819-0.856
			c0.82-1.422,1.367-2.848,2.463-4.271c0.546-0.854,0.546-1.425,1.092-2.278c0.82-1.14,1.368-2.278,2.188-3.42
			c1.913-3.701,3.555-7.118,5.741-10.537c0.547-1.141,0.821-2.563,1.714-3.553"/>
		<path fill="none" stroke="#703817" stroke-miterlimit="10" d="M572.545,393.676c4.333-12.337,8.64-24.686,12.934-37.039
			c4.298-12.368,8.582-24.742,12.868-37.114c4.302-12.417,8.603-24.836,12.914-37.247c4.224-12.146,8.483-24.269,12.735-36.407
			c1.892-5.392,3.781-10.786,5.733-16.158"/>
		<path fill="none" stroke="#703817" stroke-miterlimit="10" d="M572.554,393.769c9.837-57.161,19.133-114.698,29.159-171.878"/>
		<path fill="none" stroke="#703817" stroke-miterlimit="10" d="M572.817,393.729c0-57.977,0-116.366,0-174.471"/>
		<path fill="none" stroke="#703817" stroke-miterlimit="10" d="M572.976,393.676c-1.796-10.357-3.438-20.327-5.08-30.866
			c-2.46-13.956-4.646-26.488-7.109-40.445c-5.743-34.463-10.938-66.936-16.864-100.474"/>
		<path fill="none" stroke="#703817" stroke-miterlimit="10" d="M573.031,393.415c-19.355-54.53-38.223-108.934-57.126-163.705"/>
		<path fill="none" stroke="#703817" stroke-miterlimit="10" d="M573.052,393.268c-3.789-6.531-7.342-13.083-11.17-19.919
			c-0.274-0.284,0-0.854-0.274-1.14c-4.648-7.406-8.203-14.526-12.577-21.932c-0.274-0.854-0.549-1.71-0.822-2.563
			c-5.196-9.398-10.118-17.943-15.587-27.343c-2.733-5.128-5.193-10.254-7.931-15.382c-2.186-3.987-4.374-7.69-6.834-11.677
			c-0.548-0.856-0.548-1.708-1.095-2.564c-1.64-2.847-3.282-5.695-5.195-8.544c-4.103-7.122-7.931-13.957-11.759-21.078
			c-0.547-1.139-1.094-2.563-1.642-3.704c-3.007-5.127-5.468-9.968-8.551-14.943"/>
		<path fill="none" stroke="#703817" stroke-miterlimit="10" d="M573.277,393.155c-8.173-10.141-16.341-20.283-24.513-30.429
			c-8.167-10.137-16.332-20.274-24.499-30.413c-8.185-10.159-16.368-20.316-24.549-30.474
			c-8.182-10.155-16.362-20.311-24.542-30.467c-3.108-3.856-6.213-7.71-9.317-11.565"/>
		<path fill="none" stroke="#703817" stroke-miterlimit="10" d="M573.601,393.271c-9.748-8.521-19.496-17.04-29.243-25.56
			c-9.745-8.518-19.49-17.036-29.235-25.555c-9.757-8.523-19.512-17.051-29.266-25.576c-9.753-8.523-19.504-17.046-29.256-25.568
			c-3.752-3.279-7.501-6.559-11.256-9.838"/>
		<path fill="none" stroke="#703817" stroke-miterlimit="10" d="M574.096,393.268c-10.657-6.47-21.328-12.913-32.001-19.352
			c-10.718-6.465-21.441-12.927-32.156-19.397c-10.889-6.58-21.664-13.422-32.661-19.807c-5.293-3.07-10.702-5.905-15.937-9.1
			c-2.653-1.624-5.294-3.268-7.97-4.854c-2.66-1.575-5.187-3.428-7.885-4.927c-2.911-1.614-5.783-3.3-8.667-4.96
			c-1.453-0.838-2.911-1.668-4.375-2.481c-1.312-0.729-2.454-1.695-3.736-2.469"/>
		<path fill="none" stroke="#703817" stroke-miterlimit="10" d="M574.324,393.26c-17.365-6.809-34.867-13.361-52.366-20.195
			c-35.55-13.672-70.552-25.921-105.508-39.761"/>
		<path fill="none" stroke="#703817" stroke-miterlimit="10" d="M576.782,393.276c-33.223-6.258-65.216-11.953-99.399-17.934
			c-2.732-0.569-5.193-1.139-7.928-1.71c-20.782-3.416-40.197-7.404-60.512-11.146"/>
		<line fill="none" stroke="#703817" stroke-miterlimit="10" x1="739.221" y1="392.586" x2="406.416" y2="392.586"/>
		<path fill="none" stroke="#703817" stroke-miterlimit="10" d="M736.693,362.487c-55.588,10.577-111.373,20.261-166.846,30.536"/>
		<path fill="none" stroke="#703817" stroke-miterlimit="10" d="M729.185,333.304c-5.841,2.446-11.765,4.667-17.709,6.823
			c-5.76,2.093-11.387,4.502-17.145,6.604c-11.86,4.334-23.682,8.773-35.495,13.244c-11.793,4.464-23.574,8.96-35.372,13.409
			c-11.904,4.491-23.813,8.974-35.714,13.474c-5.528,2.092-11.049,4.192-16.545,6.372"/>
		<path fill="none" stroke="#703817" stroke-miterlimit="10" d="M716.928,305.921c-1.024,0.991-2.324,1.592-3.527,2.302
			c-0.482,0.285-0.909,0.263-1.398,0.471c-0.738,0.313-1.451,0.876-2.146,1.297c-2.734,1.652-5.471,3.304-8.207,4.956
			c-5.398,3.263-10.8,6.524-16.201,9.784c-10.631,6.419-21.264,12.834-31.902,19.239c-10.615,6.394-21.239,12.78-31.862,19.157
			c-10.853,6.509-21.771,12.905-32.555,19.529c-6.04,3.711-12.06,7.455-18.121,11.126"/>
		<path fill="none" stroke="#703817" stroke-miterlimit="10" d="M700.291,281.172c-4.765,3.945-9.336,8.133-14.037,12.159
			c-1.192,1.025-2.398,2.039-3.614,3.037c-0.553,0.456-0.924,0.981-1.366,1.544c-0.49,0.627-1.119,1.088-1.724,1.591
			c-2.308,1.923-4.615,3.844-6.863,5.846c-9.293,8.266-18.759,16.309-28.169,24.436c-4.738,4.092-9.342,8.358-14.101,12.42
			c-1.163,0.994-2.342,1.968-3.518,2.944c-1.15,0.952-1.937,2.198-3.104,3.1c-2.333,1.805-4.385,3.932-6.7,5.76
			c-9.793,7.729-18.973,16.189-28.354,24.447c-5.573,4.908-11.165,9.796-16.703,14.746"/>
		<path fill="none" stroke="#703817" stroke-miterlimit="10" d="M679.778,259.808c-2.502,3.313-4.964,6.446-7.972,9.293
			c-0.822,0.856-0.822,1.995-1.368,2.848c-3.828,4.559-7.384,8.547-11.209,13.104c-8.479,10.822-16.409,20.507-24.611,31.329
			c-0.821,1.142-2.188,1.71-3.009,2.851c-5.468,7.12-10.938,13.385-16.134,20.791c-0.271,0.57-0.82,0.854-1.367,1.14
			c-6.562,7.977-11.758,15.666-18.319,23.356c-3.009,3.417-5.47,6.836-8.478,10.538c-0.273,0.285-0.818,0.568-1.095,0.854
			c-4.648,5.982-9.024,11.679-13.811,17.337"/>
		<path fill="none" stroke="#703817" stroke-miterlimit="10" d="M656.019,242.478c-6.201,11.182-12.411,22.357-18.622,33.534
			c-6.223,11.197-12.448,22.392-18.68,33.585c-3.153,5.665-6.31,11.33-9.466,16.997c-1.591,2.858-3.186,5.72-4.778,8.581
			c-1.507,2.701-2.705,5.629-4.311,8.266c-0.782,1.29-1.806,2.527-2.443,3.9c-0.291,0.624-0.401,1.318-0.741,1.922
			c-0.39,0.691-0.868,1.345-1.284,2.025c-0.378,0.626-0.85,1.222-1.182,1.875c-0.338,0.664-0.452,1.424-0.814,2.081
			c-0.733,1.327-1.604,2.58-2.346,3.907c-0.729,1.305-1.446,2.616-2.254,3.872c-0.832,1.299-1.247,2.721-1.983,4.057
			c-1.55,2.811-3.093,5.618-4.642,8.429c-3.354,6.091-6.711,12.179-10.104,18.245"/>
		<path fill="none" stroke="#703817" stroke-miterlimit="10" d="M629.73,229.71c-10.697,31.986-22.184,63.033-33.122,95.218
			c-0.548,1.14-1.094,2.563-1.642,3.702c-1.641,5.981-3.827,11.394-6.015,17.374c-5.47,15.952-10.664,31.616-16.424,47.673"/>
		<path fill="none" stroke="#703817" stroke-miterlimit="10" d="M601.714,221.891c-1.279,6.196-1.552,12.461-3.191,18.726
			c-0.273,1.143-0.545,2.564-0.822,3.704c-1.092,8.546-2.733,16.521-4.1,25.065c-0.274,3.134-1.367,5.98-1.641,9.115
			c0,1.707-0.273,3.703-0.82,5.412c-6.29,37.882-12.305,73.2-18.52,109.839"/>
		<path fill="none" stroke="#703817" stroke-miterlimit="10" d="M572.817,219.257c0,58.105,0,116.495,0,174.471"/>
		<path fill="none" stroke="#703817" stroke-miterlimit="10" d="M543.922,221.891c4.56,27.843,9.208,54.901,14.131,83.954
			c3.281,17.374,5.742,33.04,8.475,50.129c0.548,3.988,1.644,7.406,2.188,11.394c1.367,9.114,2.736,17.659,4.318,26.354"/>
		<path fill="none" stroke="#703817" stroke-miterlimit="10" d="M515.905,229.71c14.802,41.956,29.023,83.254,44.062,125.411
			c4.373,12.815,9.022,25.347,13.235,38.074"/>
		<path fill="none" stroke="#703817" stroke-miterlimit="10" d="M489.617,242.478c6.403,11.406,12.769,22.832,19.115,34.271
			c6.354,11.451,12.689,22.914,19.022,34.377c6.358,11.511,12.717,23.021,19.088,34.525c6.354,11.462,12.771,22.887,19.114,34.357
			c2.408,4.363,4.784,8.747,7.158,13.134"/>
		<path fill="none" stroke="#703817" stroke-miterlimit="10" d="M465.857,259.808c2.23,2.742,4.417,5.59,6.878,8.439
			c3.283,3.987,6.29,7.405,9.024,11.961c0.547,0.57,1.095,0.855,1.641,1.427c11.759,14.525,22.422,28.198,34.18,42.723
			c8.479,10.254,16.407,19.938,24.613,30.764c0.818,1.138,2.187,1.708,3.008,2.849c5.195,6.833,10.389,12.532,15.313,19.65
			c0.547,0.857,1.368,1.141,1.912,1.71c3.557,5.127,7.112,9.398,10.861,13.934"/>
		<g>
			<g>
				<path fill="none" stroke="#603913" stroke-miterlimit="10" d="M615.962,404.246c0-1.6-0.867-4.733-1.189-4.733
					c0.322,0,0.645,0,0.966,0c-2.213-23.313-20.584-41.505-42.921-41.505c-23.828,0-43.145,20.702-43.145,46.238"/>
				<path fill="none" stroke="#603913" stroke-width="1.3333" stroke-miterlimit="10" d="M646.023,399.455
					c0-2.502-0.654-6.008-1.017-7.406c-0.108,0-0.216,0-0.324,0c0.302-0.223,0.601-0.444,0.898-0.666
					c-3.977-36.156-34.515-64.275-71.599-64.275c-39.789,0-72.044,32.392-72.044,72.348"/>
				<path fill="none" stroke="#603913" stroke-width="1.6667" stroke-miterlimit="10" d="M676.086,394.664
					c0-3.402-0.441-7.282-0.844-10.078c-0.538,0-1.076,0-1.615,0c0.636-0.111,1.27-0.222,1.902-0.333
					c-5.316-49.481-48.229-88.046-100.382-88.046c-55.749,0-100.942,44.081-100.942,98.457"/>
				<path fill="none" stroke="#603913" stroke-width="2" stroke-miterlimit="10" d="M706.148,389.872
					c0-4.304-0.229-8.556-0.672-12.749c-0.968,0-1.936,0-2.904,0c0.969,0,1.937,0,2.904,0
					c-6.655-62.808-61.944-111.816-129.164-111.816c-71.71,0-129.842,55.771-129.842,124.565"/>
			</g>
		</g>
	</g>
	<g>
		<path fill="#00AEEF" stroke="#603913" stroke-miterlimit="10" d="M596.826,392.507c0-0.541-0.04-1.074-0.11-1.602
			c-0.161,0-0.321,0-0.481,0c0.16,0,0.32,0,0.481,0c-1.102-7.891-10.265-14.049-21.401-14.049c-11.883,0-21.515,7.009-21.515,15.65"
			/>
	</g>
</g>
<rect x="378.439" y="389.586" fill="#414042" width="387.061" height="22.414"/>
<g>
	<g>
		<path fill="#00AEEF" d="M465.915,898.878c-117.338,0-212.462,79.125-212.462,176.729c0,1.958,0.044,3.908,0.121,5.852
			c4.069-0.551,8.2-0.837,12.359-0.837c0.587,0,1.178,0.007,1.765,0.02c0.594-0.013,1.188-0.02,1.78-0.02
			c4.272,0,8.516,0.302,12.69,0.881l7.885-0.881h0.709c2.277,0.006,4.526,0.093,6.754,0.251c2.231-0.162,4.476-0.251,6.728-0.251
			c0.376,0,0.751,0.006,1.129,0.012c5.871-1.169,11.922-1.78,18.025-1.78c6.739,0,13.409,0.747,19.847,2.17
			c6.447-1.424,13.133-2.17,19.885-2.17c2.736,0,5.462,0.122,8.168,0.363c2.696-0.238,5.417-0.363,8.146-0.363
			c5.005,0,9.973,0.41,14.837,1.204c1.183,0.026,2.362,0.082,3.537,0.153c1.908-0.118,3.825-0.179,5.747-0.179
			c1.771,0,3.534,0.057,5.293,0.159c0.776-0.045,1.554-0.08,2.336-0.105c3.569-0.422,7.183-0.644,10.82-0.644
			c0.512,0,1.021,0.008,1.532,0.017c3.476-0.4,6.991-0.605,10.526-0.605c4.331,0,8.634,0.313,12.865,0.911
			c2.555-0.214,5.128-0.322,7.707-0.322c4.794,0,9.549,0.378,14.213,1.104c4.65-0.724,9.391-1.104,14.166-1.104
			c3.937,0,7.848,0.256,11.703,0.749c3.858-0.493,7.772-0.749,11.71-0.749c0.3,0,0.6,0.007,0.902,0.008
			c3.448-0.394,6.938-0.597,10.447-0.597c4.996,0,9.954,0.408,14.806,1.196c0.503-0.009,1.008-0.018,1.513-0.018
			c0.516,0,1.034,0.008,1.549,0.016c3.472-0.398,6.98-0.605,10.512-0.605c2.738,0,5.466,0.124,8.174,0.365
			c2.695-0.239,5.413-0.365,8.144-0.365h51.791c1.654,0,3.304,0.049,4.948,0.137c1.653-0.089,3.316-0.137,4.982-0.137
			c4.176,0,8.324,0.287,12.405,0.843c2.24-0.163,4.49-0.253,6.749-0.253c1.534,0,3.06,0.043,4.583,0.118
			c1.541-0.077,3.088-0.118,4.643-0.118c1.276,0,2.552,0.027,3.825,0.079c3.651-0.442,7.351-0.669,11.072-0.669
			c3.637,0,7.25,0.22,10.821,0.642c0.045-1.488,0.073-2.98,0.073-4.477C678.377,978.003,583.254,898.878,465.915,898.878z"/>
		<path fill="none" d="M468.126,898.635c0,60.194,0,120.387,0,180.71"/>
		<path fill="none" stroke="#703817" stroke-width="3" stroke-miterlimit="10" d="M430.642,901.362
			c5.914,28.845,11.945,56.876,18.329,86.974c4.258,17.998,7.45,34.228,10.995,51.931c0.71,4.132,2.133,7.673,2.839,11.803
			c1.773,9.442,3.55,18.294,5.604,27.302"/>
		<path fill="none" stroke="#703817" stroke-width="3" stroke-miterlimit="10" d="M394.298,909.463
			c19.201,43.465,37.649,86.248,57.157,129.92c5.674,13.276,11.705,26.259,17.168,39.443"/>
		<path fill="none" stroke="#703817" stroke-width="3" stroke-miterlimit="10" d="M360.195,922.689
			c2.935,4.272,5.771,8.402,8.608,12.828c21.991,31.278,41.856,59.898,63.85,91.176c1.066,1.771,2.13,3.541,3.548,5.311
			c10.642,15.936,21.638,30.984,32.411,46.859"/>
		<path fill="none" stroke="#703817" stroke-width="3" stroke-miterlimit="10" d="M329.373,940.643
			c2.893,2.842,5.731,5.792,8.924,8.743c4.258,4.131,8.159,7.672,11.706,12.392c0.71,0.591,1.419,0.886,2.129,1.478
			c15.253,15.048,29.086,29.212,44.338,44.259c11,10.623,21.284,20.655,31.928,31.869c1.064,1.179,2.838,1.77,3.903,2.951
			c6.739,7.079,13.477,12.983,19.864,20.357c0.708,0.888,1.773,1.182,2.48,1.771c4.613,5.312,9.226,9.736,14.088,14.435"/>
		<path fill="none" stroke="#703817" stroke-width="3" stroke-miterlimit="10" d="M302.764,962.773
			c1.574,0.83,2.609,2.108,3.964,3.137c1.45,1.104,3.067,2.086,4.577,3.134c3.006,2.083,5.983,4.192,8.99,6.271
			c3.028,2.094,6.04,4.308,9.343,6.085c3.139,1.69,5.158,4.28,8.086,6.162c12.47,8.016,24.451,16.526,36.487,24.98
			c6.055,4.251,12.127,8.479,18.289,12.622c6.212,4.176,11.953,8.803,18.298,12.838c6.21,3.95,12.153,8.138,17.872,12.57
			c5.564,4.314,12.284,7.547,17.492,12.189c0.755,0.674,1.279,1.481,2.299,1.883c1.05,0.412,1.821,0.868,2.728,1.481
			c2.091,1.413,4.175,2.832,6.25,4.259c4.069,2.796,8.117,5.618,12.148,8.451"/>
		<path fill="none" stroke="#703817" stroke-width="3" stroke-miterlimit="10" d="M281.182,988.413
			c1.021,0.968,2.435,1.493,3.828,1.983c1.544,0.543,2.962,1.201,4.427,1.88c3.498,1.624,6.959,3.301,10.43,4.969
			c3.396,1.632,7.132,3.054,10.22,5.067c3.131,2.045,7.016,3.477,10.472,5.113c13.95,6.601,27.806,13.331,41.672,20.047
			c13.969,6.762,28.16,13.231,42.042,20.104c6.816,3.376,13.514,6.938,20.581,9.948c7.03,2.996,13.753,6.563,20.509,9.97
			c7.921,3.994,16.133,7.63,24.196,11.42"/>
		<path fill="none" stroke="#703817" stroke-width="3" stroke-miterlimit="10" d="M265.281,1016.781
			c47.121,14.338,93.943,28.207,141.479,42.961c7.094,2.064,14.189,4.131,21.282,6.196c14.19,4.723,28.025,8.851,42.232,12.954"/>
		<path fill="none" stroke="#703817" stroke-width="3" stroke-miterlimit="10" d="M255.542,1047.013
			c59.342,9.188,116.81,16.86,177.82,26.008c13.836,2.065,26.604,4.13,39.856,5.74"/>
		
			<line fill="none" stroke="#703817" stroke-width="3" stroke-miterlimit="10" x1="252.263" y1="1078.194" x2="683.989" y2="1078.194"/>
		<path fill="none" stroke="#703817" stroke-width="3" stroke-miterlimit="10" d="M464.794,1078.913
			c72.149-10.318,143.806-21.827,215.915-31.9"/>
		<path fill="none" stroke="#703817" stroke-width="3" stroke-miterlimit="10" d="M465.957,1078.913
			c68.503-20.941,136.611-41.597,205.013-62.132"/>
		<path fill="none" stroke="#703817" stroke-width="3" stroke-miterlimit="10" d="M466.983,1078.847
			c14.262-6.902,28.489-13.853,42.747-20.759c14.227-6.892,28.505-13.71,42.792-20.516c14.303-6.813,28.597-13.64,42.88-20.476
			c14.271-6.834,28.532-13.682,42.781-20.542c5.63-2.711,11.258-5.425,16.887-8.141"/>
		<path fill="none" stroke="#703817" stroke-width="3" stroke-miterlimit="10" d="M467.223,1078.826
			c12.623-8.813,25.247-17.622,37.869-26.435c12.645-8.823,25.285-17.649,37.928-26.474c12.668-8.841,25.333-17.682,37.999-26.523
			c12.633-8.814,25.265-17.634,37.896-26.448c4.858-3.392,9.715-6.78,14.569-10.173"/>
		<path fill="none" stroke="#703817" stroke-width="3" stroke-miterlimit="10" d="M466.724,1079.425
			c10.242-10.114,20.531-20.19,30.758-30.314c5.188-5.134,10.356-10.28,15.501-15.443c2.605-2.619,5.203-5.243,7.792-7.872
			c1.242-1.261,2.413-2.823,3.87-3.91c0.608-0.456,1.242-0.738,1.784-1.27c0.692-0.681,1.386-1.362,2.077-2.043
			c10.38-10.207,20.652-20.489,30.936-30.764c10.23-10.219,20.477-20.427,30.854-30.542c1.429-1.39,2.966-2.735,4.308-4.187
			c0.54-0.58,0.761-1.23,1.353-1.804c0.742-0.728,1.488-1.448,2.24-2.168c2.923-2.8,5.887-5.574,8.683-8.465"/>
		<path fill="none" stroke="#703817" stroke-width="3" stroke-miterlimit="10" d="M467.41,1079.366
			c14.197-21.1,29.094-41.164,43.285-62.705c0.353-0.591,1.063-1.18,1.772-1.771c1.418-2.065,2.128-3.836,3.902-5.605
			c0.709-0.886,0.709-1.771,1.417-2.656c6.031-8.261,10.997-15.934,16.673-24.491c2.483-3.246,4.965-6.194,7.096-9.441
			c3.548-5.9,7.804-11.212,11.35-17.114c1.065-1.181,1.773-2.361,2.839-3.541c1.065-1.179,1.419-2.36,2.128-3.539
			c0.355-0.297,0.709-0.591,1.064-0.887c1.063-1.474,1.772-2.95,3.193-4.426c0.709-0.884,0.709-1.476,1.417-2.36
			c1.063-1.181,1.775-2.359,2.838-3.542c2.483-3.835,4.612-7.375,7.449-10.916c0.71-1.182,1.065-2.655,2.223-3.681"/>
		<path fill="none" stroke="#703817" stroke-width="3" stroke-miterlimit="10" d="M467.772,1079.324
			c5.621-12.78,11.208-25.573,16.776-38.371c5.576-12.813,11.135-25.632,16.694-38.448c5.579-12.863,11.159-25.729,16.753-38.586
			c5.479-12.583,11.005-25.142,16.521-37.716c2.453-5.586,4.904-11.174,7.438-16.739"/>
		<path fill="none" stroke="#703817" stroke-width="3" stroke-miterlimit="10" d="M467.782,1079.42
			c12.761-59.216,24.82-118.821,37.828-178.057"/>
		<path fill="none" stroke="#703817" stroke-width="3" stroke-miterlimit="10" d="M468.126,1079.379
			c0-60.062,0-120.55-0.001-180.744"/>
		<path fill="none" stroke="#703817" stroke-width="3" stroke-miterlimit="10" d="M468.331,1079.324
			c-2.331-10.729-4.46-21.058-6.59-31.976c-3.191-14.458-6.029-27.441-9.224-41.899c-7.449-35.702-14.188-69.342-21.876-104.086"/>
		<path fill="none" stroke="#703817" stroke-width="3" stroke-miterlimit="10" d="M468.404,1079.054
			c-25.11-56.49-49.585-112.85-74.106-169.59"/>
		<path fill="none" stroke="#703817" stroke-width="3" stroke-miterlimit="10" d="M468.429,1078.901
			c-4.915-6.767-9.524-13.554-14.49-20.635c-0.355-0.295,0-0.885-0.355-1.181c-6.03-7.673-10.642-15.049-16.316-22.721
			c-0.355-0.885-0.711-1.771-1.065-2.655c-6.739-9.736-13.126-18.589-20.221-28.326c-3.546-5.312-6.737-10.622-10.286-15.935
			c-2.837-4.131-5.676-7.967-8.866-12.097c-0.711-0.887-0.711-1.77-1.421-2.656c-2.126-2.949-4.257-5.9-6.738-8.852
			c-5.321-7.378-10.287-14.459-15.255-21.836c-0.708-1.18-1.418-2.654-2.128-3.837c-3.901-5.312-7.095-10.326-11.093-15.48"/>
		<path fill="none" stroke="#703817" stroke-width="3" stroke-miterlimit="10" d="M468.722,1078.785
			c-10.601-10.506-21.197-21.013-31.798-31.523c-10.594-10.501-21.188-21.003-31.782-31.506
			c-10.615-10.524-21.232-21.047-31.845-31.569c-10.613-10.521-21.227-21.041-31.837-31.562c-4.031-3.995-8.059-7.987-12.087-11.981
			"/>
		<path fill="none" stroke="#703817" stroke-width="3" stroke-miterlimit="10" d="M469.143,1078.904
			c-12.646-8.827-25.291-17.652-37.937-26.479c-12.643-8.823-25.284-17.648-37.925-26.474c-12.657-8.83-25.312-17.663-37.965-26.495
			c-12.65-8.83-25.3-17.659-37.95-26.488c-4.868-3.396-9.733-6.794-14.603-10.191"/>
		<path fill="none" stroke="#703817" stroke-width="3" stroke-miterlimit="10" d="M469.783,1078.901
			c-13.824-6.702-27.667-13.378-41.512-20.048c-13.905-6.697-27.814-13.391-41.715-20.095c-14.125-6.816-28.104-13.904-42.37-20.519
			c-6.865-3.181-13.883-6.117-20.671-9.427c-3.443-1.683-6.868-3.385-10.34-5.028c-3.449-1.632-6.728-3.552-10.229-5.104
			c-3.775-1.672-7.502-3.418-11.243-5.138c-1.886-0.868-3.776-1.729-5.676-2.571c-1.7-0.755-3.183-1.756-4.847-2.558"/>
		<path fill="none" stroke="#703817" stroke-width="3" stroke-miterlimit="10" d="M470.08,1078.893
			c-22.527-7.053-45.23-13.841-67.932-20.921c-46.114-14.163-91.521-26.853-136.867-41.19"/>
		<path fill="none" stroke="#703817" stroke-width="3" stroke-miterlimit="10" d="M473.269,1078.91
			c-43.098-6.482-84.6-12.383-128.943-18.578c-3.546-0.59-6.737-1.18-10.285-1.771c-26.958-3.539-52.146-7.671-78.497-11.546"/>
		
			<line fill="none" stroke="#703817" stroke-width="3" stroke-miterlimit="10" x1="683.989" y1="1078.195" x2="252.265" y2="1078.195"/>
		<path fill="none" stroke="#703817" stroke-width="3" stroke-miterlimit="10" d="M680.71,1047.015
			c-72.11,10.957-144.475,20.989-216.437,31.634"/>
		<path fill="none" stroke="#703817" stroke-width="3" stroke-miterlimit="10" d="M670.97,1016.781
			c-7.575,2.534-15.262,4.835-22.972,7.069c-7.472,2.168-14.771,4.663-22.241,6.842c-15.385,4.489-30.721,9.089-46.045,13.72
			c-15.298,4.625-30.583,9.282-45.886,13.892c-15.444,4.652-30.892,9.296-46.33,13.958c-7.171,2.167-14.334,4.343-21.461,6.602"/>
		<path fill="none" stroke="#703817" stroke-width="3" stroke-miterlimit="10" d="M655.07,988.414
			c-1.328,1.027-3.015,1.649-4.577,2.385c-0.625,0.296-1.18,0.272-1.813,0.487c-0.959,0.325-1.884,0.908-2.783,1.344
			c-3.548,1.712-7.098,3.423-10.646,5.135c-7.003,3.38-14.01,6.759-21.018,10.136c-13.789,6.649-27.583,13.295-41.384,19.931
			c-13.771,6.623-27.551,13.24-41.335,19.846c-14.076,6.743-28.241,13.369-42.229,20.231c-7.835,3.845-15.645,7.724-23.506,11.526"
			/>
		<path fill="none" stroke="#703817" stroke-width="3" stroke-miterlimit="10" d="M633.488,962.775
			c-6.181,4.088-12.111,8.426-18.208,12.597c-1.549,1.063-3.113,2.112-4.689,3.146c-0.719,0.472-1.199,1.017-1.772,1.6
			c-0.637,0.649-1.451,1.127-2.235,1.647c-2.993,1.992-5.987,3.982-8.903,6.056c-12.057,8.563-24.336,16.896-36.543,25.314
			c-6.146,4.238-12.118,8.659-18.292,12.866c-1.509,1.03-3.037,2.039-4.562,3.05c-1.492,0.986-2.514,2.277-4.028,3.212
			c-3.026,1.869-5.688,4.072-8.69,5.966c-12.706,8.007-24.614,16.772-36.783,25.327c-7.231,5.084-14.484,10.147-21.668,15.275"/>
		<path fill="none" stroke="#703817" stroke-width="3" stroke-miterlimit="10" d="M606.879,940.644
			c-3.246,3.432-6.439,6.678-10.342,9.627c-1.064,0.887-1.064,2.066-1.774,2.95c-4.966,4.723-9.578,8.854-14.541,13.575
			c-10.999,11.211-21.285,21.244-31.927,32.455c-1.064,1.183-2.837,1.771-3.902,2.953c-7.094,7.376-14.189,13.866-20.93,21.539
			c-0.353,0.591-1.063,0.885-1.772,1.181c-8.514,8.263-15.253,16.229-23.766,24.195c-3.902,3.54-7.096,7.082-10.998,10.917
			c-0.354,0.296-1.063,0.589-1.419,0.886c-6.03,6.197-11.707,12.099-17.916,17.96"/>
		<path fill="none" stroke="#703817" stroke-width="3" stroke-miterlimit="10" d="M576.057,922.69
			c-8.044,11.583-16.101,23.161-24.157,34.739c-8.072,11.6-16.147,23.197-24.232,34.793c-4.09,5.868-8.185,11.737-12.278,17.607
			c-2.064,2.962-4.132,5.926-6.199,8.89c-1.954,2.799-3.51,5.831-5.591,8.563c-1.016,1.336-2.344,2.618-3.171,4.04
			c-0.377,0.646-0.521,1.366-0.96,1.991c-0.506,0.716-1.127,1.393-1.666,2.098c-0.491,0.648-1.102,1.266-1.532,1.942
			c-0.44,0.688-0.587,1.476-1.058,2.156c-0.952,1.375-2.083,2.673-3.042,4.048c-0.945,1.352-1.879,2.71-2.926,4.012
			c-1.079,1.345-1.618,2.818-2.572,4.202c-2.01,2.911-4.013,5.82-6.021,8.731c-4.351,6.31-8.705,12.616-13.106,18.901"/>
		<path fill="none" stroke="#703817" stroke-width="3" stroke-miterlimit="10" d="M541.955,909.464
			c-13.878,33.136-28.778,65.299-42.968,98.641c-0.709,1.181-1.419,2.655-2.128,3.835c-2.129,6.197-4.966,11.804-7.804,17.999
			c-7.096,16.525-13.834,32.753-21.305,49.387"/>
		<path fill="none" stroke="#703817" stroke-width="3" stroke-miterlimit="10" d="M505.611,901.363
			c-1.659,6.418-2.013,12.909-4.141,19.398c-0.354,1.184-0.706,2.657-1.066,3.838c-1.417,8.853-3.545,17.114-5.318,25.966
			c-0.355,3.247-1.773,6.196-2.128,9.443c0,1.769-0.355,3.836-1.064,5.606c-8.159,39.244-15.962,75.832-24.024,113.788"/>
		<path fill="none" stroke="#703817" stroke-width="3" stroke-miterlimit="10" d="M468.126,898.635c0,60.194,0,120.683,0,180.744"/>
		<path fill="none" stroke="#703817" stroke-width="3" stroke-miterlimit="10" d="M430.642,901.363
			c5.914,28.844,11.945,56.875,18.329,86.973c4.258,17.998,7.45,34.228,10.995,51.931c0.71,4.132,2.133,7.673,2.839,11.803
			c1.773,9.442,3.55,18.294,5.604,27.302"/>
		<path fill="none" stroke="#703817" stroke-width="3" stroke-miterlimit="10" d="M394.298,909.464
			c19.201,43.464,37.649,86.247,57.157,129.919c5.674,13.276,11.705,26.259,17.168,39.443"/>
		<path fill="none" stroke="#703817" stroke-width="3" stroke-miterlimit="10" d="M360.195,922.69
			c8.306,11.816,16.564,23.652,24.797,35.503c8.243,11.863,16.461,23.738,24.676,35.613c8.249,11.925,16.496,23.849,24.763,35.767
			c8.241,11.874,16.568,23.709,24.795,35.593c3.125,4.52,6.207,9.062,9.286,13.605"/>
		<path fill="none" stroke="#703817" stroke-width="3" stroke-miterlimit="10" d="M329.373,940.644
			c2.893,2.841,5.731,5.791,8.924,8.742c4.258,4.131,8.159,7.672,11.706,12.392c0.71,0.591,1.419,0.886,2.129,1.478
			c15.253,15.048,29.086,29.212,44.338,44.259c11,10.623,21.284,20.655,31.928,31.869c1.064,1.179,2.838,1.77,3.903,2.951
			c6.739,7.079,13.477,12.983,19.864,20.357c0.708,0.888,1.773,1.182,2.48,1.771c4.613,5.312,9.226,9.736,14.088,14.435"/>
		<g>
			<g>
				<path fill="none" stroke="#603913" stroke-width="5" stroke-miterlimit="10" d="M524.094,1090.274
					c0-1.657-1.125-4.903-1.543-4.903c0.418,0,0.836,0,1.254,0c-2.871-24.151-26.703-42.997-55.68-42.997
					c-30.909,0-55.968,21.446-55.968,47.9"/>
				<path fill="none" stroke="#603913" stroke-width="4.3333" stroke-miterlimit="10" d="M563.091,1085.311
					c0-2.591-0.849-6.223-1.318-7.672c-0.141,0-0.28,0-0.42,0c0.385-0.283,0.765-0.564,1.142-0.846
					c-5.237-37.383-44.814-66.431-92.858-66.431c-51.613,0-93.456,33.556-93.456,74.948"/>
				<path fill="none" stroke="#603913" stroke-width="3.6667" stroke-miterlimit="10" d="M602.089,1080.348
					c0-3.525-0.572-7.544-1.094-10.44c-0.699,0-1.396,0-2.095,0c0.82-0.142,1.639-0.282,2.455-0.423
					c-6.937-51.224-62.586-91.133-130.208-91.133c-72.318,0-130.944,45.665-130.944,101.996"/>
				<path fill="none" stroke="#603913" stroke-width="3" stroke-miterlimit="10" d="M641.087,1075.384
					c0-4.459-0.297-8.863-0.87-13.208c-1.257,0-2.513,0-3.769,0c1.256,0,2.512,0,3.769,0
					c-8.635-65.065-80.358-115.836-167.559-115.836c-93.023,0-168.433,57.775-168.433,129.044"/>
			</g>
		</g>
	</g>
	<g>
		<path fill="#00AEEF" stroke="#603913" stroke-width="5" stroke-miterlimit="10" d="M489.593,1078.113
			c0-0.561-0.045-1.113-0.125-1.659c-0.182,0-0.362,0-0.544,0c0.182,0,0.362,0,0.544,0c-1.242-8.175-11.575-14.554-24.133-14.554
			c-13.399,0-24.261,7.261-24.261,16.213"/>
	</g>
</g>
<g>
	<path d="M581.878,410.155c-0.377-0.079-0.74-0.198-1.085-0.351c-0.345-0.153-0.673-0.342-0.979-0.56
		c-0.307-0.216-0.592-0.463-0.854-0.735c-0.261-0.275-0.496-0.574-0.704-0.896c-0.206-0.322-0.386-0.667-0.532-1.027
		c-0.146-0.364-0.26-0.745-0.336-1.137c-0.078-0.396-0.118-0.805-0.118-1.22c-0.001-0.416,0.039-0.826,0.116-1.22
		c0.075-0.395,0.189-0.773,0.335-1.138c0.145-0.363,0.324-0.708,0.531-1.028c0.205-0.323,0.441-0.621,0.7-0.896
		c0.262-0.273,0.548-0.521,0.854-0.739c0.306-0.218,0.633-0.406,0.978-0.561c0.345-0.152,0.708-0.271,1.084-0.354
		c0.375-0.079,0.764-0.121,1.159-0.123c0.397,0,0.785,0.043,1.16,0.121c0.378,0.082,0.738,0.201,1.084,0.354
		c0.345,0.152,0.673,0.339,0.979,0.555c0.308,0.22,0.593,0.466,0.854,0.74c0.261,0.275,0.496,0.571,0.703,0.894l0.457,0.706
		l-8.396,5.567c0.065,0.079,0.133,0.156,0.204,0.23c0.19,0.197,0.396,0.378,0.621,0.536c0.223,0.159,0.462,0.296,0.711,0.405
		c0.252,0.11,0.514,0.197,0.788,0.256c0.27,0.058,0.554,0.089,0.845,0.091c0.29-0.001,0.573-0.034,0.844-0.093
		c0.272-0.059,0.536-0.146,0.785-0.257c0.25-0.111,0.488-0.247,0.712-0.403c0.222-0.16,0.432-0.34,0.621-0.54s0.36-0.419,0.51-0.651
		c0.15-0.236,0.28-0.485,0.386-0.75l0.19-0.471l1.449,0.641l-0.188,0.474c-0.146,0.362-0.325,0.705-0.531,1.029
		c-0.208,0.322-0.442,0.621-0.703,0.896c-0.26,0.274-0.546,0.522-0.854,0.74c-0.305,0.216-0.632,0.404-0.978,0.558
		s-0.707,0.273-1.083,0.353c-0.376,0.083-0.764,0.126-1.16,0.125C582.642,410.278,582.253,410.238,581.878,410.155 M582.184,399.914
		c-0.271,0.059-0.534,0.146-0.786,0.258c-0.249,0.111-0.487,0.246-0.71,0.404c-0.223,0.16-0.431,0.342-0.62,0.539
		c-0.19,0.2-0.362,0.418-0.513,0.651c-0.149,0.236-0.278,0.486-0.384,0.75c-0.107,0.264-0.188,0.54-0.244,0.823
		c-0.056,0.286-0.084,0.583-0.084,0.889c0,0.307,0.029,0.603,0.085,0.888c0.039,0.193,0.089,0.383,0.149,0.563l6.906-4.579
		c-0.187-0.194-0.392-0.371-0.612-0.525c-0.224-0.16-0.46-0.294-0.709-0.407c-0.253-0.111-0.517-0.196-0.787-0.255
		c-0.273-0.058-0.556-0.089-0.846-0.089S582.456,399.855,582.184,399.914 M565.368,404.239l-0.008-9.725h1.575l0.003,5.569
		c1.051-1.17,2.539-1.9,4.188-1.902h0.001c3.183-0.003,5.764,2.706,5.769,6.049c0.002,3.343-2.574,6.055-5.759,6.057
		C567.954,410.291,565.373,407.583,565.368,404.239 M566.942,404.233v0.005c0.006,2.429,1.88,4.396,4.193,4.397
		c2.315-0.006,4.185-1.975,4.187-4.404c-0.007-2.43-1.88-4.395-4.192-4.396C568.815,399.84,566.947,401.806,566.942,404.233
		 M597.708,410.149l-4.915-4.111l0.003,4.114l-1.573,0.001l-0.013-15.655l1.573-0.002l0.006,8.107l4.909-4.119l2.522-0.002
		l-6.955,5.839l6.965,5.825L597.708,410.149z M589.368,410.154l-0.487,0.001l-0.013-15.658l1.572-0.003l0.014,15.66H589.368z"/>
	<path fill="#8ED8F8" d="M559.65,405.444c2.351-0.004,4.535-2.699,4.535-2.699s-1.863-2.508-4.215-2.507
		c-2.351,0.004-4.256,2.569-4.256,2.569s1.229,2.34,3.839,2.623"/>
	<path fill="#008FD5" d="M556.388,395.663c-0.001-0.63,0.047-1.037,0.047-1.037s3.953-0.515,6.093,1.729
		c1.47,1.54,1.7,3.981,1.701,5.358c0.001,0.571-0.037,0.961-0.045,1.026c-0.306-0.386-2.076-2.504-4.213-2.502
		c-0.74,0.001-1.437,0.257-2.043,0.606C556.604,399.299,556.39,396.99,556.388,395.663"/>
	<path fill="#25408F" d="M557.928,400.845c0.606-0.35,1.303-0.605,2.043-0.606c2.137-0.002,3.908,2.116,4.213,2.502v0.01
		c0,0-3.954,0.515-6.093-1.728C558.034,400.962,557.981,400.905,557.928,400.845"/>
	<path fill="#77BAE7" d="M559.339,407.164c0.001-0.492,0.025-1.218,0.26-1.896c0.04-0.116,0.237,0.01,0.358,0.011
		c2.181-0.003,3.978-2.209,4.226-2.53c0.003,0.026,0.03,0.274,0.03,0.642c0,0.859-0.141,2.377-1.054,3.336
		c-1.329,1.399-3.788,1.083-3.788,1.083S559.34,407.556,559.339,407.164"/>
	<path fill="#0072BC" d="M559.546,405.431c0.16-0.55,0.411-1.094,0.804-1.529c1.345-1.492,3.833-1.153,3.833-1.153v0.002
		c-0.251,0.344-2.068,2.698-4.274,2.701C559.786,405.451,559.665,405.444,559.546,405.431"/>
</g>
<rect x="515.05" y="436.081" fill="#D1D3D4" width="113.218" height="66.362"/>
<rect x="28" y="10" fill="#EFE5D8" width="1126" height="35.144"/>
<rect x="24.858" y="10" fill="#EFE5D8" width="1140.142" height="12.144"/>
<g>
	<rect x="290" y="45.144" fill="#E4D1BA" width="49.903" height="457.3"/>
	<pattern  id="SVGID_2_" xlink:href="#New_Pattern_2" patternTransform="matrix(0.61 0 0 0.61 -2804.1899 -2793.1211)">
	</pattern>
	<rect x="290" y="45.144" fill="url(#SVGID_2_)" width="49.903" height="457.3"/>
</g>
<g>
	<rect x="804.641" y="46.144" fill="#E4D1BA" width="49.903" height="458.68"/>
	<pattern  id="SVGID_3_" xlink:href="#New_Pattern_2" patternTransform="matrix(0.61 0 0 0.6021 -2813.1899 -2745.9346)">
	</pattern>
	<rect x="804.641" y="46.144" fill="url(#SVGID_3_)" width="49.903" height="458.68"/>
</g>
<polygon fill="#603913" points="405.415,505.451 375.572,505.451 377.24,388.848 405.415,389.586 "/>
<polygon fill="#603913" points="768.063,509.123 734.615,509.123 736.484,386.561 768.063,387.337 "/>
<rect x="-406" y="-180" fill="#CEAB83" width="745.903" height="118"/>
<rect x="-626" y="363.291" fill="#CEAB83" width="362" height="32.488"/>
</svg>
